<svg width="23" height="25" viewBox="0 0 23 25" fill="none" xmlns="http://www.w3.org/2000/svg">
<path d="M1.96223 10.016C2.01005 9.43965 2.28054 8.90185 2.71982 8.50972C3.15911 8.11759 3.73497 7.89991 4.3327 7.90002H18.6673C19.265 7.89991 19.8409 8.11759 20.2802 8.50972C20.7195 8.90185 20.99 9.43965 21.0378 10.016L21.9924 21.516C22.0186 21.8325 21.9769 22.1508 21.8697 22.4509C21.7626 22.751 21.5924 23.0264 21.3698 23.2597C21.1472 23.4931 20.8772 23.6793 20.5765 23.8067C20.2759 23.9341 19.9513 23.9999 19.6231 24H3.37691C3.0487 23.9999 2.72408 23.9341 2.42346 23.8067C2.12285 23.6793 1.85275 23.4931 1.63019 23.2597C1.40763 23.0264 1.23742 22.751 1.13027 22.4509C1.02312 22.1508 0.981365 21.8325 1.00762 21.516L1.96223 10.016V10.016Z" stroke="white" stroke-width="2" stroke-linecap="round" stroke-linejoin="round"/>
<path d="M16.2551 11.35V5.6C16.2551 4.38001 15.7541 3.20998 14.8623 2.34731C13.9705 1.48464 12.761 1 11.4998 1C10.2387 1 9.02917 1.48464 8.1374 2.34731C7.24562 3.20998 6.74463 4.38001 6.74463 5.6V11.35" stroke="white" stroke-width="2" stroke-linecap="round" stroke-linejoin="round"/>
</svg>
